<svg width="57" height="57" viewBox="0 0 57 57" fill="none" xmlns="http://www.w3.org/2000/svg">
<rect width="56.2727" height="56.2727" rx="13" fill="#383838"/>
<path d="M28.0524 44.6441C14.3905 44.6441 11.4624 41.8624 11.4624 28.8836C11.4624 25.3165 11.6836 22.5197 12.288 20.3392C13.8355 21.9471 15.7883 23.8807 17.9094 25.6029C20.9176 28.0455 24.561 30.3164 28.0524 30.3164C31.5439 30.3164 35.1872 28.0455 38.1955 25.6029C40.3165 23.8807 42.2694 21.9471 43.8169 20.3392C44.4213 22.5197 44.6425 25.3165 44.6425 28.8836C44.6425 41.8624 41.7143 44.6441 28.0524 44.6441Z" fill="white"/>
<path d="M42.612 17.5261C40.9921 19.2371 38.8434 21.4365 36.4902 23.3472C33.5261 25.754 30.5334 27.4508 28.0524 27.4508C25.5715 27.4508 22.5788 25.754 19.6147 23.3472C17.2615 21.4365 15.1128 19.2371 13.4928 17.5261C15.6886 14.0867 20.0112 13.123 28.0524 13.123C36.0936 13.123 40.4163 14.0867 42.612 17.5261Z" fill="white"/>
</svg>
