<svg width="57" height="57" viewBox="0 0 57 57" fill="none" xmlns="http://www.w3.org/2000/svg">
<rect width="56.2727" height="56.2727" rx="13" fill="#383838"/>
<path d="M28.8963 32.2336C29.9037 32.9432 30.9597 33.5399 32.0483 33.9914C32.7243 34.2366 33.7849 33.5424 34.5648 33.032C34.7598 32.9045 34.9372 32.7884 35.0866 32.7013L35.1357 32.6737C35.8703 32.2612 36.6861 31.8031 37.735 32.024C38.6774 32.2175 41.9106 34.7655 42.8042 35.6686C43.3892 36.2492 43.7141 36.862 43.7629 37.491C43.8603 39.8293 40.7246 42.458 39.9772 42.9096C38.3849 44.0707 36.2565 44.0546 33.6893 42.8934C30.9435 41.7807 27.6615 39.4423 24.4932 36.604C23.3591 35.5879 21.1811 33.4488 20.5612 32.7343C17.3605 29.267 14.6634 25.5417 13.3961 22.526C12.7949 21.252 12.5024 20.0747 12.5024 19.0265C12.5024 17.9944 12.7949 17.0751 13.3636 16.2849C13.7048 15.6882 16.4506 12.4306 18.8715 12.5112C19.4727 12.5757 20.0901 12.8822 20.6912 13.4627C21.6011 14.3497 24.217 17.5589 24.4119 18.5104C24.6344 19.5355 24.1731 20.3447 23.7576 21.0738L23.7295 21.123C23.6359 21.2848 23.5089 21.4767 23.3701 21.6866C22.8587 22.4597 22.1866 23.4757 22.4281 24.1226C23.0309 25.6062 23.892 27.0576 24.9302 28.3962C26.0825 29.7738 27.889 31.524 28.8963 32.2336Z" fill="white"/>
</svg>
