<svg width="32" height="36" viewBox="0 0 32 36" fill="none" xmlns="http://www.w3.org/2000/svg">
<path d="M20 1.38462C20 0.619914 20.597 0 21.3333 0C22.0697 0 22.6667 0.619913 22.6667 1.38462V6.92308C22.6667 7.68778 22.0697 8.30769 21.3333 8.30769C20.597 8.30769 20 7.68778 20 6.92308V1.38462Z" fill="#5B5B5B"/>
<path d="M18.6667 2.81693C17.8287 2.78418 16.9407 2.76923 16 2.76923C15.0593 2.76923 14.1713 2.78418 13.3333 2.81693V6.92308C13.3333 8.45248 12.1394 9.69231 10.6667 9.69231C9.19391 9.69231 8 8.45248 8 6.92308V3.42782C3.32307 4.48992 1.20992 7.0228 0.410748 12.3244C0.288611 13.1346 0.909896 13.8462 1.69962 13.8462H30.3004C31.0901 13.8462 31.7114 13.1346 31.5893 12.3244C30.7901 7.0228 28.6769 4.48992 24 3.42782V6.92308C24 8.45248 22.8061 9.69231 21.3333 9.69231C19.8606 9.69231 18.6667 8.45248 18.6667 6.92308V2.81693Z" fill="#5B5B5B"/>
<path fill-rule="evenodd" clip-rule="evenodd" d="M16 36C2.824 36 0 33.0674 0 19.3846C0 18.892 0.00365968 18.4134 0.0113302 17.9484C0.0236069 17.204 0.613161 16.6154 1.33003 16.6154H30.67C31.3868 16.6154 31.9764 17.204 31.9887 17.9484C31.9963 18.4134 32 18.892 32 19.3846C32 33.0674 29.176 36 16 36ZM6.66667 22.1538C6.66667 21.3891 7.26362 20.7692 8 20.7692H12C12.7364 20.7692 13.3333 21.3891 13.3333 22.1538C13.3333 22.9185 12.7364 23.5385 12 23.5385H8C7.26362 23.5385 6.66667 22.9185 6.66667 22.1538ZM8 26.3077C7.26362 26.3077 6.66667 26.9276 6.66667 27.6923C6.66667 28.457 7.26362 29.0769 8 29.0769H12C12.7364 29.0769 13.3333 28.457 13.3333 27.6923C13.3333 26.9276 12.7364 26.3077 12 26.3077H8ZM23.844 21.1807C24.3647 20.64 25.2089 20.64 25.7296 21.1807C26.2503 21.7214 26.2503 22.5981 25.7296 23.1388L20.3479 28.7275C20.0735 29.0125 19.7091 29.1473 19.3497 29.1319C19.021 29.1224 18.695 28.9874 18.4441 28.7269L16.5585 26.7687C16.0378 26.228 16.0378 25.3513 16.5585 24.8106C17.0792 24.2698 17.9234 24.2698 18.4441 24.8106L19.3963 25.7994L23.844 21.1807Z" fill="#5B5B5B"/>
<path d="M9.33333 1.38462C9.33333 0.619914 9.93029 0 10.6667 0C11.403 0 12 0.619913 12 1.38462V6.92308C12 7.68778 11.403 8.30769 10.6667 8.30769C9.93029 8.30769 9.33333 7.68778 9.33333 6.92308V1.38462Z" fill="#5B5B5B"/>
</svg>
