<svg width="32" height="32" viewBox="0 0 32 32" fill="none" xmlns="http://www.w3.org/2000/svg">
<path fill-rule="evenodd" clip-rule="evenodd" d="M16 32C2.824 32 0 29.176 0 16C0 2.824 2.824 0 16 0C29.176 0 32 2.824 32 16C32 29.176 29.176 32 16 32ZM9.33333 14.6667C8.59695 14.6667 8 15.2636 8 16C8 16.7364 8.59695 17.3333 9.33333 17.3333H22.6667C23.403 17.3333 24 16.7364 24 16C24 15.2636 23.403 14.6667 22.6667 14.6667H9.33333ZM12 9.33333C12 8.59695 12.597 8 13.3333 8H18.6667C19.403 8 20 8.59695 20 9.33333C20 10.0697 19.403 10.6667 18.6667 10.6667H13.3333C12.597 10.6667 12 10.0697 12 9.33333ZM13.3333 21.3333C12.597 21.3333 12 21.9303 12 22.6667C12 23.403 12.597 24 13.3333 24H18.6667C19.403 24 20 23.403 20 22.6667C20 21.9303 19.403 21.3333 18.6667 21.3333H13.3333Z" fill="#5B5B5B"/>
</svg>
