<svg width="32" height="32" viewBox="0 0 32 32" fill="none" xmlns="http://www.w3.org/2000/svg">
<path fill-rule="evenodd" clip-rule="evenodd" d="M8.32366 0.624954C10.4082 0.161682 12.9501 0 16 0C19.0499 0 21.5918 0.161682 23.6763 0.624954C25.776 1.09159 27.4925 1.88175 28.8054 3.19461C30.1182 4.50746 30.9084 6.22398 31.375 8.32366C31.8383 10.4082 32 12.9501 32 16C32 19.0499 31.8383 21.5918 31.375 23.6763C30.9084 25.776 30.1182 27.4925 28.8054 28.8054C27.4925 30.1182 25.776 30.9084 23.6763 31.375C21.5918 31.8383 19.0499 32 16 32C12.9501 32 10.4082 31.8383 8.32366 31.375C6.22398 30.9084 4.50746 30.1182 3.19461 28.8054C1.88175 27.4925 1.09159 25.776 0.624954 23.6763C0.161682 21.5918 0 19.0499 0 16C0 12.9501 0.161682 10.4082 0.624954 8.32366C1.09159 6.22398 1.88175 4.50746 3.19461 3.19461C4.50746 1.88175 6.22398 1.09159 8.32366 0.624954ZM16.8256 7.48841C17.8218 6.44376 19.4807 6.38894 20.5456 7.35942L24.4801 10.9451C25.5624 11.9313 25.6246 13.6042 24.6121 14.666L16.5077 23.1645C16.0065 23.6901 15.3123 23.9836 14.5917 23.9863L10.9015 24C9.53053 24.0051 8.3457 22.9616 8.25036 21.5577L8.00595 17.9583C7.95628 17.2269 8.21893 16.5137 8.72124 15.987L16.8256 7.48841ZM18.7511 9.33335L17.5495 10.5934L21.4477 14.1203L22.6369 12.8732L18.7526 9.33335L18.7511 9.33335ZM19.6067 16.0508L15.7085 12.5239L10.6686 17.8089L10.9079 21.3333L14.5818 21.3196L19.6067 16.0508Z" fill="#5B5B5B"/>
</svg>
