<svg width="36" height="30" viewBox="0 0 36 30" fill="none" xmlns="http://www.w3.org/2000/svg">
<path d="M11.7818 15C7.44387 15 3.92727 11.6421 3.92727 7.5C3.92727 3.35786 7.44387 0 11.7818 0C16.1198 0 19.6364 3.35786 19.6364 7.5C19.6364 11.6421 16.1198 15 11.7818 15Z" fill="#5B5B5B"/>
<path d="M11.7818 30C2.07949 30 0 28.8969 0 23.75C0 18.6031 2.07949 17.5 11.7818 17.5C21.4841 17.5 23.5636 18.6031 23.5636 23.75C23.5636 28.8969 21.4841 30 11.7818 30Z" fill="#5B5B5B"/>
<path d="M28.8 8.75C28.8 5.64227 26.203 2.5 22.2545 2.5C21.5316 2.5 20.9455 3.05964 20.9455 3.75C20.9455 4.44036 21.5316 5 22.2545 5C24.5898 5 26.1818 6.85773 26.1818 8.75C26.1818 10.6423 24.5898 12.5 22.2545 12.5C21.5316 12.5 20.9455 13.0596 20.9455 13.75C20.9455 14.4404 21.5316 15 22.2545 15C26.203 15 28.8 11.8577 28.8 8.75Z" fill="#5B5B5B"/>
<path d="M24.8727 16.25C24.1497 16.25 23.5636 16.8096 23.5636 17.5C23.5636 18.1904 24.1497 18.75 24.8727 18.75C28.5254 18.75 30.7049 18.9232 31.9738 19.4333C32.5478 19.6641 32.8523 19.9343 33.0386 20.2392C33.2385 20.5665 33.3818 21.0649 33.3818 21.875C33.3818 22.6805 33.2403 23.21 33.0472 23.5668C32.8642 23.9051 32.5968 24.1602 32.193 24.3658C31.2894 24.826 29.8026 25 27.4909 25C26.7679 25 26.1818 25.5596 26.1818 26.25C26.1818 26.9404 26.7679 27.5 27.4909 27.5C29.7611 27.5 31.8742 27.3615 33.4251 26.5717C34.2487 26.1523 34.9222 25.548 35.3733 24.7144C35.8142 23.8994 36 22.9445 36 21.875C36 20.8101 35.816 19.8241 35.3001 18.9795C34.7705 18.1126 33.9703 17.5234 32.9898 17.1292C31.1496 16.3893 28.42 16.25 24.8727 16.25Z" fill="#5B5B5B"/>
</svg>
