<svg width="32" height="34" viewBox="0 0 32 34" fill="none" xmlns="http://www.w3.org/2000/svg">
<path d="M13.0909 17C13.0909 18.5648 14.3934 19.8333 16 19.8333C17.6066 19.8333 18.9091 18.5648 18.9091 17C18.9091 15.4352 17.6066 14.1667 16 14.1667C14.3934 14.1667 13.0909 15.4352 13.0909 17Z" fill="#5B5B5B"/>
<path fill-rule="evenodd" clip-rule="evenodd" d="M20.3235 3.43743C19.4301 -1.14581 12.5699 -1.14581 11.6765 3.43743C11.1815 5.97702 8.43531 7.49455 5.8899 6.63507C1.29616 5.08396 -2.13392 10.7702 1.56645 13.8024C3.61684 15.4825 3.61684 18.5175 1.56645 20.1976C-2.13392 23.2298 1.29616 28.916 5.8899 27.3649C8.43531 26.5054 11.1815 28.023 11.6765 30.5626C12.5699 35.1458 19.4301 35.1458 20.3235 30.5626C20.8185 28.023 23.5647 26.5054 26.1101 27.3649C30.7038 28.916 34.1339 23.2298 30.4335 20.1976C28.3832 18.5175 28.3832 15.4825 30.4335 13.8024C34.1339 10.7702 30.7038 5.08396 26.1101 6.63507C23.5647 7.49455 20.8185 5.97702 20.3235 3.43743ZM10.1818 17C10.1818 20.1296 12.7867 22.6667 16 22.6667C19.2133 22.6667 21.8182 20.1296 21.8182 17C21.8182 13.8704 19.2133 11.3333 16 11.3333C12.7867 11.3333 10.1818 13.8704 10.1818 17Z" fill="#5B5B5B"/>
</svg>
