<svg width="252" height="147" viewBox="0 0 252 147" fill="none" xmlns="http://www.w3.org/2000/svg">
<path d="M84.4103 99.084C82.6385 95.8088 78.8267 93.0738 72.9782 90.8809C63.7995 88.3894 54.5533 85.8322 45.2431 83.2092C32.6541 79.6692 23.2764 75.4077 17.1134 70.423C8.45898 63.4727 4.13175 54.2265 4.13175 42.6878C4.13175 28.5244 10.3587 17.5739 22.8179 9.83821C33.4396 3.28073 46.2916 0.00198364 61.3738 0.00198364C76.847 0.00198364 89.6989 3.60771 99.9279 10.8209C111.598 18.9512 117.5 30.4259 117.631 45.2451H81.0445C81.3057 39.3433 79.0115 34.9503 74.1582 32.0661C70.094 29.5746 64.848 28.3289 58.422 28.3289C46.6186 28.3289 40.7186 32.3274 40.7186 40.3278C40.7186 44.9163 44.9801 48.6553 53.5048 51.5395C62.815 53.8995 72.1252 56.3253 81.4372 58.8167C93.7631 62.227 103.075 66.4885 109.37 71.6047C112.695 74.3166 115.373 77.3803 117.402 80.7905L84.4103 99.084ZM0 96.1926H36.5869C37.0898 107.314 42.3731 114.188 52.4439 116.81L19.198 135.246L18.4907 134.747C6.29447 125.961 0.131507 113.109 0 96.1926Z" fill="#A05035"/>
<path d="M232.532 15.392C243.051 24.2775 249.011 36.0632 250.409 50.7527H213.821C213.297 44.851 210.412 40.163 205.166 36.6888C203.382 35.507 201.472 34.526 199.432 33.7477L232.532 15.392ZM251.785 66.4889V143.402H228.182L226.019 128.058C217.363 140.254 204.315 146.352 186.873 146.352C166.022 146.352 149.04 139.27 135.927 125.108C124.499 112.74 118.206 97.5152 117.042 79.4332L155.022 58.3729C153.963 62.8618 153.433 67.7968 153.433 73.1761C153.433 84.848 155.925 94.4213 160.908 101.896C166.678 110.55 175.071 114.879 186.086 114.879C195.003 114.879 202.348 112.946 208.116 109.075C213.888 105.208 217.297 100.062 218.347 93.634H192.775V66.4889H251.785Z" fill="#A05035"/>
</svg>
