<svg width="263" height="25" viewBox="0 0 263 25" fill="none" xmlns="http://www.w3.org/2000/svg">
<path d="M91.1458 13.3225H107.176V11.9014H91.1458V13.3225ZM248.172 13.499H255.366C256.312 13.499 257.162 13.3661 257.916 13.0997C258.67 12.8317 259.319 12.4423 259.842 11.9482C260.364 11.4564 260.783 10.8316 261.057 10.1224C261.332 9.41054 261.479 8.5995 261.479 7.69805C261.479 6.80041 261.332 5.98229 261.057 5.27311C260.783 4.5612 260.371 3.95006 259.842 3.44895C259.313 2.95056 258.664 2.55894 257.916 2.29912C257.169 2.0393 256.298 1.89986 255.366 1.89986H248.172V13.499ZM246.754 24.4989V0.498388H255.366C256.527 0.498388 257.578 0.666151 258.518 1.00603C259.459 1.34319 260.258 1.82851 260.922 2.45544C261.586 3.08238 262.105 3.85093 262.46 4.73441C262.812 5.61571 263 6.61031 263 7.69805C263 8.78905 262.813 9.77875 262.46 10.6541C262.105 11.5321 261.587 12.2941 260.917 12.921C260.246 13.5491 259.435 14.0442 258.501 14.3824C257.568 14.7201 256.502 14.8977 255.366 14.8977H248.172V24.4989H246.754ZM224.251 25C222.82 25 221.526 24.7658 220.383 24.3219C219.239 23.8763 218.254 23.227 217.461 22.3986C216.667 21.5707 216.042 20.5445 215.615 19.3554C215.187 18.1664 214.962 16.8221 214.962 15.3318V0.498388H216.38V15.3661C216.38 16.6434 216.567 17.815 216.921 18.838C217.276 19.8598 217.799 20.7373 218.474 21.4535C219.15 22.1709 219.983 22.7265 220.951 23.099C221.919 23.4716 223.022 23.6655 224.251 23.6655C225.477 23.6655 226.586 23.4716 227.554 23.099C228.522 22.7265 229.356 22.1665 230.026 21.4535C230.695 20.7433 231.224 19.8598 231.579 18.838C231.933 17.815 232.119 16.6549 232.119 15.3661V0.498388H233.538V15.3318C233.538 16.8106 233.318 18.1664 232.89 19.3554C232.463 20.5434 231.832 21.5707 231.039 22.3986C230.245 23.227 229.265 23.8709 228.117 24.3219C226.968 24.7712 225.679 25 224.251 25ZM192.188 23.5974C193.753 23.5974 195.121 23.3267 196.291 22.7831C197.463 22.2379 198.445 21.4672 199.224 20.4878C200.002 19.5079 200.596 18.3281 200.986 16.9713C201.377 15.6151 201.577 14.1215 201.577 12.4995C201.577 10.8763 201.381 9.38276 200.986 8.02159C200.592 6.66096 200.003 5.48499 199.224 4.50455C198.446 3.5263 197.459 2.75775 196.291 2.21633C195.124 1.67546 193.753 1.39984 192.188 1.39984C190.622 1.39984 189.26 1.67219 188.096 2.21633C186.931 2.76101 185.956 3.52303 185.179 4.50455C184.402 5.48826 183.814 6.66532 183.424 8.02159C183.033 9.37949 182.82 10.8763 182.798 12.4995C182.787 14.1215 182.982 15.6151 183.367 16.9713C183.751 18.3281 184.344 19.509 185.128 20.4878C185.912 21.4683 186.901 22.2379 188.079 22.7831C189.255 23.3267 190.622 23.5974 192.188 23.5974ZM192.188 25C190.375 25 188.783 24.683 187.426 24.0719C186.066 23.458 184.923 22.5958 184.014 21.4982C183.107 20.4028 182.418 19.0787 181.965 17.5492C181.514 16.0198 181.279 14.3323 181.279 12.4995C181.279 10.6655 181.513 8.97861 181.965 7.44967C182.417 5.92019 183.102 4.60042 184.014 3.5007C184.926 2.39934 186.067 1.53601 187.426 0.922699C188.784 0.308836 190.375 0 192.188 0C194 0 195.591 0.308836 196.951 0.922699C198.309 1.53601 199.454 2.4037 200.361 3.5007C201.27 4.59606 201.964 5.92128 202.415 7.44967C202.867 8.97861 203.098 10.6655 203.098 12.4995C203.098 14.3323 202.872 16.0165 202.415 17.5492C201.961 19.082 201.273 20.3996 200.361 21.4982C199.449 22.599 198.312 23.4547 196.951 24.0719C195.588 24.6874 194 25 192.188 25ZM154.034 13.499H161.228C162.174 13.499 163.024 13.3661 163.778 13.0997C164.532 12.8317 165.176 12.4472 165.703 11.9482C166.228 11.452 166.64 10.836 166.919 10.1224C167.197 9.40727 167.341 8.5995 167.341 7.69805C167.341 6.80041 167.197 5.98719 166.919 5.27311C166.64 4.55793 166.23 3.94788 165.703 3.44895C165.177 2.95165 164.53 2.5622 163.778 2.29912C163.026 2.03495 162.169 1.89986 161.228 1.89986H154.034V13.499ZM161.33 14.8977H161.228H154.034V24.4989H152.615V0.498388H161.228C162.388 0.498388 163.44 0.666151 164.38 1.00603C165.32 1.34319 166.122 1.83069 166.783 2.45544C167.445 3.08129 167.96 3.8384 168.321 4.72733C168.681 5.6168 168.861 6.60486 168.861 7.68824C168.861 8.63273 168.727 9.50532 168.451 10.294C168.175 11.0882 167.779 11.7876 167.268 12.3932C166.756 12.9989 166.134 13.5011 165.41 13.8982C164.686 14.2964 163.863 14.5763 162.95 14.7327L169.536 24.4989H167.831L161.33 14.8977ZM139.885 19.8816C139.548 20.6926 139.102 21.4171 138.544 22.0494C137.989 22.6807 137.334 23.2172 136.592 23.6546C135.851 24.092 135.021 24.4264 134.103 24.6552C133.185 24.8818 132.189 25 131.119 25C129.421 25 127.9 24.7086 126.56 24.1378C125.222 23.5653 124.09 22.7434 123.16 21.6709C122.232 20.5989 121.521 19.2873 121.033 17.7377C120.545 16.1897 120.295 14.4434 120.295 12.4995C120.295 10.5549 120.544 8.8103 121.039 7.26557C121.535 5.72138 122.256 4.41087 123.194 3.33892C124.134 2.26807 125.279 1.44886 126.628 0.88348C127.979 0.318096 129.505 0.033226 131.205 0.033226C132.24 0.033226 133.227 0.150333 134.154 0.38945C135.082 0.626934 135.94 0.989695 136.721 1.46684C137.503 1.94453 138.197 2.54586 138.804 3.26757C139.411 3.9871 139.907 4.83354 140.291 5.79982L138.905 6.36629C138.579 5.54436 138.161 4.82102 137.65 4.20661C137.139 3.58948 136.546 3.07639 135.882 2.66624C135.219 2.25663 134.491 1.94344 133.703 1.73809C132.917 1.53384 132.082 1.43361 131.205 1.43361C129.695 1.43361 128.361 1.67872 127.197 2.17275C126.033 2.66624 125.046 3.39557 124.247 4.34932C123.449 5.30415 122.844 6.4834 122.435 7.88215C122.024 9.28091 121.815 10.8872 121.815 12.6988C121.815 14.3993 122.023 15.9206 122.44 17.2704C122.856 18.6212 123.466 19.7661 124.265 20.7052C125.063 21.642 126.044 22.3605 127.197 22.8545C128.35 23.348 129.656 23.5974 131.119 23.5974C132.674 23.5974 134.003 23.3589 135.1 22.8883C136.198 22.4166 137.094 21.7526 137.786 20.9051C138.476 20.0559 138.985 19.0373 139.305 17.8483C139.626 16.6603 139.784 15.3438 139.784 13.8982H129.921V12.4995H141.303V24.4989H139.885V19.8816ZM91.1458 24.4989H107.176V23.0587H91.1458V24.4989ZM91.1458 1.92002H107.176V0.498388H91.1458V1.92002ZM68.2136 24.4989L59.3653 0.498388H60.8845L68.9573 22.4819L77.063 0.498388H78.5833L69.7339 24.4989H68.2136ZM38.9175 23.5974C40.4819 23.5974 41.8496 23.3267 43.0206 22.7831C44.1928 22.2379 45.1728 21.4715 45.9538 20.4878C46.736 19.5047 47.3227 18.3314 47.716 16.9713C48.1105 15.6107 48.3072 14.1215 48.3072 12.4995C48.3072 10.8763 48.1105 9.38276 47.716 8.02159C47.3227 6.66096 46.736 5.48826 45.9538 4.50455C45.1728 3.52303 44.1928 2.76101 43.0206 2.21633C41.8496 1.67219 40.4819 1.39984 38.9175 1.39984C37.352 1.39984 35.9911 1.67219 34.8257 2.21633C33.6603 2.76101 32.6859 3.52303 31.9094 4.50455C31.1317 5.48826 30.5473 6.66096 30.1529 8.02159C29.7595 9.38276 29.5504 10.8763 29.5278 12.4995C29.5165 14.1215 29.7075 15.6107 30.0963 16.9713C30.4852 18.3314 31.0707 19.5047 31.8574 20.4878C32.6464 21.4715 33.6309 22.2379 34.8087 22.7831C35.9843 23.3267 37.352 23.5974 38.9175 23.5974ZM38.9175 25C37.1044 25 35.5174 24.6874 34.1554 24.0719C32.7933 23.4547 31.6562 22.599 30.744 21.4982C29.833 20.3996 29.1503 19.082 28.6947 17.5492C28.2392 16.0165 28.0086 14.3323 28.0086 12.4995C28.0086 10.6655 28.2392 8.98187 28.6947 7.44967C29.1503 5.91692 29.833 4.60042 30.744 3.5007C31.6562 2.39934 32.7933 1.53928 34.1554 0.922699C35.5174 0.30448 37.1044 0 38.9175 0C40.7294 0 42.3176 0.30448 43.6796 0.922699C45.0417 1.53928 46.1788 2.39934 47.091 3.5007C48.0032 4.60042 48.6904 5.91692 49.1459 7.44967C49.6014 8.98187 49.8275 10.6655 49.8275 12.4995C49.8275 14.3323 49.6014 16.0165 49.1459 17.5492C48.6904 19.082 48.0032 20.3996 47.091 21.4982C46.1788 22.599 45.0417 23.4547 43.6796 24.0719C42.3176 24.6874 40.7294 25 38.9175 25ZM9.42362 25C8.19607 25 7.05895 24.8491 6.00548 24.549C4.95426 24.2489 4.01948 23.8164 3.20337 23.2543C2.38614 22.6927 1.70567 22.0146 1.15972 21.2204C0.613772 20.4263 0.224934 19.5324 0 18.5319L1.41857 18.2655C1.6435 19.0885 1.99278 19.826 2.46526 20.4878C2.93774 21.1491 3.52439 21.7101 4.21615 22.1709C4.90905 22.6317 5.69124 22.9874 6.56838 23.233C7.44779 23.476 8.3984 23.5974 9.42362 23.5974C10.4929 23.5974 11.4605 23.4716 12.3274 23.2162C13.1955 22.9607 13.9382 22.599 14.5519 22.1317C15.1646 21.6643 15.6382 21.099 15.9762 20.4372C16.313 19.777 16.4814 19.0439 16.4814 18.2323C16.4814 16.011 15.0075 14.4647 12.0573 13.5992L5.97834 11.799C2.62238 10.8104 0.94609 8.97752 0.94609 6.29929C0.94609 5.37769 1.14276 4.53342 1.53047 3.76596C1.92044 2.9985 2.45961 2.33344 3.15816 1.77132C3.85557 1.21029 4.69542 0.777267 5.66751 0.466251C6.64186 0.155235 7.71229 0 8.88218 0C10.0758 0 11.1802 0.16613 12.1929 0.498388C13.2057 0.83337 14.1009 1.30507 14.8775 1.91621C15.6552 2.52789 16.2972 3.26049 16.7979 4.12164C17.2987 4.98279 17.6185 5.9447 17.7655 6.99867L16.3469 7.26557C16.235 6.38862 15.9694 5.58739 15.5478 4.87167C15.125 4.15541 14.5847 3.53719 13.9325 3.02192C13.2792 2.50556 12.5241 2.10521 11.6685 1.82143C10.8128 1.53928 9.88479 1.39984 8.88218 1.39984C7.92591 1.39984 7.0533 1.52131 6.26546 1.77132C5.47647 2.02242 4.80166 2.3672 4.23876 2.80568C3.67585 3.24415 3.24293 3.7616 2.93322 4.34932C2.62238 4.93812 2.46526 5.57759 2.46526 6.26607C2.46526 6.81021 2.55004 7.29444 2.71959 7.72147C2.88801 8.14905 3.16946 8.53795 3.55829 8.88819C3.946 9.23897 4.44674 9.55434 5.06616 9.83866C5.68559 10.1224 6.43953 10.3997 7.3291 10.6655L12.3625 12.1656C14.1518 12.6988 15.5195 13.4766 16.46 14.5039C17.4004 15.5323 17.8661 16.7774 17.8661 18.2323C17.8661 19.2661 17.6694 20.1986 17.2693 21.0331C16.8703 21.8664 16.3017 22.5756 15.5704 23.166C14.8391 23.7548 13.954 24.2042 12.9141 24.5201C11.8719 24.8382 10.7066 25 9.42362 25Z" fill="white"/>
</svg>
