<svg width="465" height="44" viewBox="0 0 465 44" fill="none" xmlns="http://www.w3.org/2000/svg">
<path d="M161.151 23.4476H189.494V20.9464H161.151V23.4476ZM438.784 23.7582H451.502C453.175 23.7582 454.678 23.5242 456.011 23.0555C457.344 22.5838 458.491 21.8984 459.416 21.0289C460.339 20.1632 461.081 19.0637 461.565 17.8155C462.05 16.5626 462.31 15.1351 462.31 13.5486C462.31 11.9687 462.05 10.5288 461.565 9.28067C461.081 8.02771 460.352 6.95211 459.416 6.07016C458.481 5.19299 457.334 4.50372 456.011 4.04645C454.69 3.58918 453.151 3.34376 451.502 3.34376H438.784V23.7582ZM436.276 43.118V0.877163H451.502C453.555 0.877163 455.413 1.17242 457.076 1.77062C458.739 2.36403 460.152 3.21818 461.327 4.32158C462.5 5.42498 463.417 6.77764 464.045 8.33256C464.668 9.88366 465 11.6341 465 13.5486C465 15.4687 464.67 17.2106 464.045 18.7511C463.417 20.2965 462.502 21.6376 461.317 22.741C460.132 23.8464 458.697 24.7178 457.046 25.3131C455.395 25.9074 453.511 26.22 451.502 26.22H438.784V43.118H436.276ZM396.489 44C393.959 44 391.671 43.5878 389.65 42.8065C387.628 42.0223 385.887 40.8796 384.484 39.4215C383.081 37.9644 381.976 36.1583 381.221 34.0655C380.463 31.9728 380.066 29.6069 380.066 26.984V0.877163H382.574V27.0444C382.574 29.2924 382.903 31.3545 383.529 33.1548C384.157 34.9532 385.082 36.4976 386.275 37.7582C387.47 39.0208 388.943 39.9986 390.656 40.6543C392.366 41.31 394.317 41.6513 396.489 41.6513C398.658 41.6513 400.618 41.31 402.329 40.6543C404.042 39.9986 405.515 39.0131 406.7 37.7582C407.883 36.5082 408.818 34.9532 409.446 33.1548C410.071 31.3545 410.401 29.3126 410.401 27.0444V0.877163H412.909V26.984C412.909 29.5867 412.521 31.9728 411.764 34.0655C411.008 36.1563 409.893 37.9644 408.49 39.4215C407.087 40.8796 405.355 42.0127 403.324 42.8065C401.294 43.5974 399.013 44 396.489 44ZM339.8 41.5315C342.568 41.5315 344.986 41.055 347.054 40.0983C349.127 39.1387 350.863 37.7822 352.24 36.0586C353.615 34.334 354.667 32.2575 355.356 29.8695C356.048 27.4825 356.401 24.8539 356.401 21.999C356.401 19.1423 356.054 16.5137 355.356 14.118C354.659 11.7233 353.617 9.65358 352.24 7.92801C350.865 6.20628 349.119 4.85363 347.054 3.90073C344.992 2.9488 342.568 2.46372 339.8 2.46372C337.032 2.46372 334.624 2.94305 332.565 3.90073C330.505 4.85938 328.782 6.20053 327.407 7.92801C326.034 9.65933 324.995 11.731 324.305 14.118C323.614 16.5079 323.236 19.1423 323.198 21.999C323.178 24.8539 323.524 27.4825 324.203 29.8695C324.883 32.2575 325.932 34.3359 327.317 36.0586C328.704 37.7841 330.453 39.1387 332.535 40.0983C334.614 41.055 337.032 41.5315 339.8 41.5315ZM339.8 44C336.594 44 333.78 43.4421 331.38 42.3665C328.976 41.2861 326.955 39.7685 325.349 37.8369C323.744 35.909 322.527 33.5785 321.725 30.8867C320.928 28.1948 320.512 25.2249 320.512 21.999C320.512 18.7713 320.926 15.8023 321.725 13.1114C322.525 10.4195 323.736 8.09674 325.349 6.16122C326.961 4.22284 328.978 2.70338 331.38 1.62395C333.782 0.543552 336.594 0 339.8 0C343.003 0 345.817 0.543552 348.221 1.62395C350.622 2.70338 352.646 4.23051 354.251 6.16122C355.858 8.08907 357.085 10.4215 357.882 13.1114C358.682 15.8023 359.089 18.7713 359.089 21.999C359.089 25.2249 358.69 28.189 357.882 30.8867C357.079 33.5843 355.864 35.9033 354.251 37.8369C352.638 39.7743 350.628 41.2803 348.221 42.3665C345.811 43.4497 343.003 44 339.8 44ZM272.342 23.7582H285.061C286.733 23.7582 288.236 23.5242 289.569 23.0555C290.902 22.5838 292.041 21.907 292.973 21.0289C293.902 20.1556 294.63 19.0713 295.123 17.8155C295.615 16.5568 295.869 15.1351 295.869 13.5486C295.869 11.9687 295.615 10.5375 295.123 9.28067C294.63 8.02196 293.904 6.94828 292.973 6.07016C292.043 5.19491 290.898 4.50948 289.569 4.04645C288.24 3.5815 286.725 3.34376 285.061 3.34376H272.342V23.7582ZM285.241 26.22H285.061H272.342V43.118H269.832V0.877163H285.061C287.111 0.877163 288.972 1.17242 290.635 1.77062C292.295 2.36403 293.714 3.22201 294.883 4.32158C296.052 5.42307 296.964 6.75559 297.601 8.3201C298.239 9.88557 298.557 11.6246 298.557 13.5313C298.557 15.1936 298.319 16.7294 297.831 18.1175C297.343 19.5152 296.644 20.7461 295.741 21.8121C294.835 22.8781 293.734 23.762 292.455 24.4608C291.174 25.1616 289.719 25.6544 288.106 25.9295L299.75 43.118H296.736L285.241 26.22ZM247.325 34.9916C246.729 36.419 245.94 37.694 244.955 38.807C243.973 39.9181 242.814 40.8623 241.503 41.6321C240.192 42.4019 238.725 42.9905 237.103 43.3932C235.48 43.792 233.719 44 231.827 44C228.825 44 226.135 43.4871 223.767 42.4825C221.4 41.4749 219.398 40.0283 217.755 38.1407C216.114 36.2541 214.857 33.9457 213.994 31.2184C213.131 28.4939 212.689 25.4205 212.689 21.999C212.689 18.5767 213.128 15.5061 214.004 12.7874C214.881 10.0696 216.156 7.76313 217.815 5.87651C219.476 3.99181 221.5 2.55 223.886 1.55492C226.275 0.559849 228.973 0.0584755 231.978 0.0584755C233.809 0.0584755 235.554 0.264584 237.192 0.685432C238.833 1.1034 240.35 1.74186 241.731 2.58163C243.114 3.42237 244.341 4.48072 245.414 5.75092C246.488 7.0173 247.365 8.50704 248.042 10.2077L245.592 11.2047C245.017 9.75807 244.277 8.48499 243.374 7.40363C242.471 6.31749 241.421 5.41444 240.248 4.69258C239.075 3.97168 237.788 3.42045 236.395 3.05904C235.006 2.69955 233.529 2.52316 231.978 2.52316C229.308 2.52316 226.95 2.95455 224.892 3.82404C222.833 4.69258 221.089 5.97621 219.676 7.6548C218.265 9.33531 217.195 11.4108 216.472 13.8726C215.747 16.3344 215.377 19.1614 215.377 22.3499C215.377 25.3428 215.745 28.0203 216.482 30.3958C217.217 32.7733 218.295 34.7884 219.708 36.4411C221.119 38.0899 222.853 39.3544 224.892 40.2239C226.93 41.0924 229.24 41.5315 231.827 41.5315C234.576 41.5315 236.925 41.1116 238.865 40.2833C240.806 39.4531 242.391 38.2845 243.614 36.7929C244.835 35.2984 245.734 33.5057 246.3 31.413C246.867 29.3221 247.147 27.0051 247.147 24.4608H229.708V21.999H249.833V43.118H247.325V34.9916ZM161.151 43.118H189.494V40.5834H161.151V43.118ZM161.151 3.37923H189.494V0.877163H161.151V3.37923ZM120.606 43.118L104.961 0.877163H107.647L121.921 39.5682L136.252 0.877163H138.94L123.294 43.118H120.606ZM68.8085 41.5315C71.5744 41.5315 73.9926 41.055 76.0631 40.0983C78.1355 39.1387 79.8682 37.7899 81.2492 36.0586C82.6322 34.3282 83.6694 32.2633 84.3648 29.8695C85.0623 27.4748 85.4101 24.8539 85.4101 21.999C85.4101 19.1423 85.0623 16.5137 84.3648 14.118C83.6694 11.7233 82.6322 9.65933 81.2492 7.92801C79.8682 6.20053 78.1355 4.85938 76.0631 3.90073C73.9926 2.94305 71.5744 2.46372 68.8085 2.46372C66.0406 2.46372 63.6344 2.94305 61.5739 3.90073C59.5134 4.85938 57.7907 6.20053 56.4178 7.92801C55.0428 9.65933 54.0096 11.7233 53.3121 14.118C52.6166 16.5137 52.2469 19.1423 52.2069 21.999C52.1869 24.8539 52.5247 27.4748 53.2122 29.8695C53.8997 32.2633 54.9349 34.3282 56.3258 36.0586C57.7208 37.7899 59.4615 39.1387 61.5439 40.0983C63.6224 41.055 66.0406 41.5315 68.8085 41.5315ZM68.8085 44C65.6029 44 62.797 43.4497 60.3888 42.3665C57.9806 41.2803 55.9701 39.7743 54.3573 37.8369C52.7465 35.9033 51.5394 33.5843 50.734 30.8867C49.9286 28.189 49.5209 25.2249 49.5209 21.999C49.5209 18.7713 49.9286 15.8081 50.734 13.1114C51.5394 10.4138 52.7465 8.09674 54.3573 6.16122C55.9701 4.22284 57.9806 2.70914 60.3888 1.62395C62.797 0.535881 65.6029 0 68.8085 0C72.0121 0 74.82 0.535881 77.2282 1.62395C79.6364 2.70914 81.6469 4.22284 83.2597 6.16122C84.8725 8.09674 86.0876 10.4138 86.893 13.1114C87.6984 15.8081 88.0981 18.7713 88.0981 21.999C88.0981 25.2249 87.6984 28.189 86.893 30.8867C86.0876 33.5843 84.8725 35.9033 83.2597 37.8369C81.6469 39.7743 79.6364 41.2803 77.2282 42.3665C74.82 43.4497 72.0121 44 68.8085 44ZM16.6615 44C14.4912 44 12.4806 43.7345 10.618 43.2062C8.75944 42.678 7.10668 41.9169 5.66376 40.9275C4.21884 39.9392 3.01573 38.7457 2.05045 37.3479C1.08519 35.9502 0.397697 34.3771 0 32.6161L2.50812 32.1473C2.90581 33.5958 3.52336 34.8938 4.35874 36.0586C5.19411 37.2224 6.23133 38.2098 7.45441 39.0208C8.67949 39.8318 10.0625 40.4578 11.6133 40.8901C13.1681 41.3177 14.8489 41.5315 16.6615 41.5315C18.5521 41.5315 20.2628 41.31 21.7957 40.8604C23.3305 40.4108 24.6435 39.7743 25.7287 38.9518C26.8119 38.1292 27.6493 37.1342 28.2469 35.9694C28.8424 34.8075 29.1402 33.5172 29.1402 32.0888C29.1402 28.1794 26.5341 25.4578 21.318 23.9345L10.5701 20.7662C4.63653 19.0263 1.67274 15.8004 1.67274 11.0868C1.67274 9.46473 2.02048 7.97882 2.70597 6.62809C3.39545 5.27735 4.34874 4.10685 5.58382 3.11752C6.81689 2.13011 8.30179 1.36799 10.0205 0.820602C11.7432 0.273212 13.6358 0 15.7042 0C17.8147 0 19.7672 0.292385 21.5579 0.877163C23.3485 1.46673 24.9313 2.29692 26.3043 3.37252C27.6793 4.44908 28.8144 5.73846 29.6998 7.25409C30.5851 8.76971 31.1507 10.4627 31.4105 12.3177L28.9024 12.7874C28.7045 11.244 28.2349 9.83381 27.4894 8.57414C26.742 7.31352 25.7867 6.22546 24.6336 5.31857C23.4784 4.40978 22.1434 3.70517 20.6306 3.20572C19.1177 2.70914 17.4769 2.46372 15.7042 2.46372C14.0135 2.46372 12.4707 2.6775 11.0777 3.11752C9.68274 3.55946 8.48963 4.16628 7.49439 4.93799C6.49913 5.7097 5.7337 6.62042 5.18611 7.6548C4.63653 8.6911 4.35874 9.81655 4.35874 11.0283C4.35874 11.986 4.50862 12.8382 4.8084 13.5898C5.10618 14.3423 5.60379 15.0268 6.29128 15.6432C6.97677 16.2606 7.86211 16.8156 8.95729 17.316C10.0525 17.8155 11.3855 18.3035 12.9583 18.7713L21.8576 21.4114C25.0213 22.3499 27.4395 23.7189 29.1022 25.5269C30.765 27.3368 31.5884 29.5283 31.5884 32.0888C31.5884 33.9083 31.2406 35.5495 30.5331 37.0182C29.8277 38.4849 28.8224 39.7331 27.5294 40.7722C26.2363 41.8085 24.6715 42.5994 22.8329 43.1554C20.9903 43.7153 18.9298 44 16.6615 44Z" fill="black"/>
</svg>
