<svg width="192" height="26" viewBox="0 0 192 26" fill="none" xmlns="http://www.w3.org/2000/svg">
<path d="M91.2563 13.5173H107.306V12.0754H91.2563V13.5173ZM91.2563 24.8552H107.306V23.3941H91.2563V24.8552ZM91.2563 1.94894H107.306V0.506592H91.2563V1.94894ZM68.2955 24.8552L59.4369 0.507042H60.9585L69.0405 22.8092L77.1563 0.507042H78.6787L69.8179 24.8552H68.2955ZM38.9649 23.9417C40.5312 23.9417 41.9 23.6653 43.0728 23.1148C44.246 22.5608 45.2269 21.7837 46.0097 20.786C46.7923 19.7891 47.3794 18.5988 47.7733 17.2184C48.1681 15.838 48.365 14.3275 48.365 12.6818C48.365 11.0357 48.1681 9.51965 47.7733 8.1392C47.3794 6.7583 46.7923 5.56936 46.0097 4.57116C45.2269 3.57478 44.246 2.80152 43.0728 2.24973C41.9 1.6975 40.5312 1.42109 38.9649 1.42109C37.3974 1.42109 36.0342 1.6975 34.8678 2.24973C33.7006 2.80152 32.7256 3.57478 31.9481 4.57116C31.1697 5.56936 30.584 6.7583 30.1892 8.1392C29.7953 9.51965 29.5858 11.0357 29.5636 12.6818C29.5524 14.3275 29.7439 15.838 30.1331 17.2184C30.5214 18.5988 31.108 19.7891 31.8957 20.786C32.6858 21.7837 33.6719 22.5608 34.851 23.1148C36.0277 23.6653 37.3974 23.9417 38.9649 23.9417ZM38.9649 25.3633C37.1489 25.3633 35.5599 25.0461 34.1967 24.4214C32.8329 23.7962 31.695 22.9277 30.781 21.8111C29.8691 20.6959 29.1859 19.3604 28.7293 17.8046C28.2732 16.2503 28.0419 14.5411 28.0419 12.6818C28.0419 10.8217 28.2732 9.11424 28.7293 7.55821C29.1859 6.00398 29.8691 4.66865 30.781 3.55207C31.695 2.43593 32.8329 1.56232 34.1967 0.936668C35.5599 0.310101 37.1489 0.00158119 38.9649 0.00158119C40.7792 0.00158119 42.3687 0.310101 43.7323 0.936668C45.0964 1.56232 46.2345 2.43593 47.1481 3.55207C48.0608 4.66865 48.7486 6.00398 49.2047 7.55821C49.6613 9.11424 49.887 10.8217 49.887 12.6818C49.887 14.5411 49.6613 16.2503 49.2047 17.8046C48.7486 19.3604 48.0608 20.6959 47.1481 21.8111C46.2345 22.9277 45.0964 23.7962 43.7323 24.4214C42.3687 25.0461 40.7792 25.3633 38.9649 25.3633ZM9.43525 25.3633C8.20634 25.3633 7.06751 25.2101 6.01314 24.9067C4.96014 24.602 4.02415 24.1622 3.20715 23.5924C2.38969 23.0234 1.70742 22.3355 1.16154 21.53C0.614906 20.7238 0.225254 19.817 0 18.8026L1.4204 18.5315C1.64566 19.3665 1.99535 20.1152 2.46871 20.786C2.94193 21.4571 3.52853 22.0261 4.22109 22.4943C4.91502 22.9607 5.69812 23.3221 6.57658 23.5705C7.45671 23.8177 8.40844 23.9417 9.43525 23.9417C10.5055 23.9417 11.4743 23.8125 12.343 23.5537C13.211 23.2945 13.9547 22.9277 14.5696 22.4544C15.1832 21.9802 15.6565 21.406 15.995 20.735C16.3332 20.0647 16.5014 19.3206 16.5014 18.4976C16.5014 16.2438 15.0257 14.6763 12.0717 13.7971L5.98574 11.9708C2.62615 10.9683 0.947035 9.10865 0.947035 6.39151C0.947035 5.45734 1.14444 4.60038 1.53273 3.82152C1.92238 3.04403 2.46311 2.36812 3.16174 1.79786C3.86066 1.22974 4.70097 0.789368 5.67495 0.474495C6.6503 0.15826 7.72147 0.00158119 8.8933 0.00158119C10.088 0.00158119 11.1934 0.170227 12.2078 0.507042C13.2222 0.846132 14.1187 1.32541 14.8952 1.94455C15.6741 2.56507 16.3166 3.30926 16.8181 4.18196C17.3198 5.05694 17.6402 6.03107 17.7875 7.10163L16.3667 7.37201C16.2546 6.48158 15.9891 5.67019 15.5665 4.94371C15.1438 4.21677 14.6026 3.59022 13.95 3.06719C13.2956 2.54236 12.5395 2.13727 11.6829 1.84889C10.8264 1.56232 9.8965 1.42109 8.8933 1.42109C7.93598 1.42109 7.06145 1.54461 6.27366 1.79786C5.48361 2.05234 4.80815 2.40249 4.24441 2.84708C3.68006 3.29245 3.24666 3.81683 2.93678 4.41328C2.62615 5.01152 2.46871 5.65852 2.46871 6.35851C2.46871 6.91075 2.55318 7.40122 2.72273 7.83462C2.89183 8.26848 3.17278 8.66313 3.56289 9.01842C3.95043 9.37386 4.45241 9.69433 5.07246 9.98317C5.69297 10.2697 6.44775 10.5521 7.33863 10.8217L12.3773 12.3436C14.1692 12.8839 15.5385 13.6731 16.48 14.7158C17.421 15.7589 17.8879 17.0215 17.8879 18.4976C17.8879 19.5471 17.6909 20.4929 17.2905 21.3391C16.891 22.184 16.3213 22.9046 15.5896 23.5022C14.8566 24.1 13.9714 24.5566 12.9296 24.8775C11.8864 25.1986 10.7196 25.3633 9.43525 25.3633Z" fill="white"/>
<path d="M177.068 14.1973H184.313C185.266 14.1973 186.122 14.0617 186.881 13.7892C187.641 13.5167 188.287 13.1258 188.82 12.6155C189.353 12.1054 189.761 11.4818 190.044 10.7502C190.328 10.0195 190.469 9.19735 190.469 8.27863C190.469 7.36066 190.328 6.53245 190.044 5.80128C189.761 5.07012 189.353 4.45218 188.82 3.94203C188.287 3.43218 187.641 3.0404 186.881 2.76838C186.122 2.49679 185.266 2.36025 184.313 2.36025H177.068V14.1973ZM175.639 25.4219V0.932121H184.313C185.481 0.932121 186.541 1.10167 187.488 1.44757C188.434 1.79378 189.239 2.28652 189.908 2.92762C190.577 3.56827 191.093 4.34455 191.456 5.25162C191.819 6.15869 192 7.16794 192 8.27863C192 9.38991 191.819 10.3933 191.456 11.2947C191.093 12.1964 190.577 12.967 189.903 13.6077C189.228 14.2483 188.418 14.747 187.471 15.0988C186.524 15.4503 185.47 15.6262 184.313 15.6262H177.068V25.4219H175.639ZM150.36 14.1973H157.604C158.557 14.1973 159.413 14.0617 160.173 13.7892C160.933 13.5167 161.578 13.1258 162.111 12.6155C162.644 12.1054 163.052 11.4818 163.336 10.7502C163.619 10.0195 163.761 9.19735 163.761 8.27863C163.761 7.36066 163.619 6.53245 163.336 5.80128C163.052 5.07012 162.644 4.45218 162.111 3.94203C161.578 3.43218 160.933 3.0404 160.173 2.76838C159.413 2.49679 158.557 2.36025 157.604 2.36025H150.36V14.1973ZM148.931 25.4219V0.932121H157.604C158.772 0.932121 159.832 1.10167 160.779 1.44757C161.726 1.79378 162.531 2.28652 163.2 2.92762C163.869 3.56827 164.385 4.34455 164.747 5.25162C165.11 6.15869 165.291 7.16794 165.291 8.27863C165.291 9.38991 165.11 10.3933 164.747 11.2947C164.385 12.1964 163.869 12.967 163.194 13.6077C162.519 14.2483 161.709 14.747 160.762 15.0988C159.816 15.4503 158.761 15.6262 157.604 15.6262H150.36V25.4219H148.931ZM134.586 17.701L129.23 2.98984L123.906 17.701H134.586ZM138.923 25.4219H137.393L135.079 19.0613H123.413L121.1 25.4219H119.569L128.481 0.932121H130.012L138.923 25.4219Z" fill="white"/>
</svg>
