<svg width="319" height="92" viewBox="0 0 319 92" fill="none" xmlns="http://www.w3.org/2000/svg">
<path d="M294.163 4.76187C301.08 4.76187 305.873 6.79171 309.254 10.304C312.633 13.7391 314.599 18.6584 314.599 24.2795C314.599 29.9778 312.633 34.8971 309.174 38.4094C305.796 41.8445 301 43.8744 294.163 43.8744H280.487V4.76187H294.163ZM276.008 0.858341V47.6989H294.478C302.101 47.6989 307.996 45.3586 312.161 41.3761C316.563 37.2392 319 31.3831 319 24.2795C319 17.7216 316.799 12.1005 312.79 7.96189C308.625 3.51274 302.572 0.858341 294.478 0.858341H276.008ZM205.748 24.2795C205.748 18.4233 207.871 13.6619 211.25 9.99172C214.945 6.011 220.289 3.82502 226.262 3.82502C232.236 3.82502 237.344 5.93205 241.037 9.75838C244.575 13.4268 246.696 18.3462 246.696 24.2795C246.696 30.1339 244.652 34.8971 241.274 38.5656C237.501 42.6252 232.236 44.8902 226.262 44.8902C220.21 44.8902 214.865 42.5463 211.092 38.4884C207.871 34.8182 205.748 29.9778 205.748 24.2795ZM226.262 0.00043869C218.717 0.00043869 212.35 2.81098 207.948 7.49346C203.784 11.8654 201.346 17.7216 201.346 24.2795C201.346 30.8374 203.627 36.4585 207.714 40.9077C212.193 45.6709 218.638 48.5586 226.262 48.5586C233.728 48.5586 239.937 45.8252 244.338 41.22C248.739 36.848 251.177 30.9146 251.177 24.2795C251.177 17.4865 248.582 11.397 244.181 7.02504C239.702 2.65309 233.492 0.00043869 226.262 0.00043869ZM137.767 4.52678H157.496V47.6989H161.898V4.52678H181.625V0.858341H137.767V4.52678ZM79.8529 4.76187H112.198V0.858341H79.8529V4.76187ZM79.8529 24.7479H112.198V20.9234H79.8529V24.7479ZM79.8529 47.6989H112.198V43.8744H79.8529V47.6989ZM0 0.858341V47.6989H3.92984V5.46538H4.55862L25.0716 33.9603H25.937L46.2133 5.46538H46.8439V47.6989H51.1658V0.858341H45.113L25.7798 27.8708L6.28776 0.858341H0Z" fill="white"/>
<path d="M7.86599 85.4793H1.75484V77.053H7.60635C9.13414 77.053 10.2062 77.5372 10.9534 78.4091C11.6369 79.1512 11.9937 80.1196 11.9937 81.2828C11.9937 82.4126 11.5715 83.446 10.888 84.2197C10.1409 84.9951 9.26307 85.4793 7.86599 85.4793ZM13.7493 81.2828C13.7493 79.7003 13.1311 78.3442 12.1244 77.3424C11.0505 76.2126 9.49091 75.567 7.6717 75.567H0.000976562V91.7109H1.75484V86.9653H7.6717C9.52447 86.9653 11.1158 86.2548 12.2533 85.0916C13.1647 84.0916 13.7493 82.7986 13.7493 81.2828Z" fill="white"/>
<path d="M49.0972 91.7109H61.8052V90.225H50.8528V83.8337H60.2792V82.3477H50.8528V77.0845H61.4166V75.567H49.0972V91.7109Z" fill="white"/>
<path d="M97.4795 75.567V91.7109H99.0391V77.4389H99.1698L106.028 86.932H106.516L113.308 77.4389H113.439V91.7109H115.195V75.567H112.854L106.353 84.639L99.8197 75.567H97.4795Z" fill="white"/>
<path d="M152.297 83.6386C152.297 81.6684 153.012 79.9578 154.215 78.7631C155.482 77.4403 157.108 76.7947 159.155 76.7947C161.008 76.7947 162.73 77.4069 163.933 78.5701C165.201 79.7648 166.014 81.5403 166.014 83.6386C166.014 85.7052 165.233 87.3842 163.967 88.6421C162.764 89.8368 161.074 90.4824 159.155 90.4824C157.172 90.4824 155.515 89.8368 154.215 88.5456C153.012 87.3509 152.297 85.6719 152.297 83.6386ZM159.155 75.2771C156.684 75.2771 154.669 76.1473 153.141 77.5683C151.485 79.0859 150.542 81.2175 150.542 83.6386C150.542 85.9631 151.451 88.0614 152.979 89.5789C154.507 91.0965 156.653 92 159.155 92C161.626 92 163.739 91.0965 165.267 89.6438C166.858 88.1263 167.704 85.9947 167.704 83.6386C167.704 81.3456 166.957 79.3122 165.429 77.7947C163.901 76.2455 161.723 75.2771 159.155 75.2771Z" fill="white"/>
<path d="M215.566 75.567V82.3144H204.872V75.567H203.118V91.7109H204.872V83.8004H215.566V91.7109H217.322V75.567H215.566Z" fill="white"/>
<path d="M252.246 77.053H258.974V91.7109H260.729V77.053H267.49V75.567H252.246V77.053Z" fill="white"/>
<path d="M307.747 77.0845H308.266L312.59 87.0285H303.456L307.747 77.0845ZM306.803 75.567L299.588 91.7109H301.344L302.806 88.4811H313.208L314.67 91.7109H316.555L309.306 75.567H306.803Z" fill="white"/>
</svg>
