<svg width="303" height="29" viewBox="0 0 303 29" fill="none" xmlns="http://www.w3.org/2000/svg">
<path d="M105.008 15.4541H123.477V13.8056H105.008V15.4541ZM285.917 15.6588H294.205C295.295 15.6588 296.274 15.5046 297.142 15.1957C298.011 14.8848 298.759 14.433 299.362 13.86C299.963 13.2894 300.446 12.5647 300.761 11.742C301.078 10.9162 301.247 9.97542 301.247 8.92974C301.247 7.88847 301.078 6.93945 300.761 6.1168C300.446 5.29099 299.971 4.58207 299.362 4.00078C298.752 3.42265 298.005 2.96836 297.142 2.66698C296.282 2.36559 295.279 2.20384 294.205 2.20384H285.917V15.6588ZM284.283 28.4187V0.578129H294.205C295.542 0.578129 296.753 0.772734 297.837 1.167C298.92 1.55811 299.841 2.12107 300.606 2.84831C301.371 3.57556 301.969 4.46708 302.378 5.49192C302.784 6.51423 303 7.66796 303 8.92974C303 10.1953 302.785 11.3433 302.378 12.3587C301.969 13.3772 301.372 14.2612 300.6 14.9884C299.828 15.7169 298.893 16.2913 297.817 16.6836C296.741 17.0754 295.513 17.2813 294.205 17.2813H285.917V28.4187H284.283ZM258.358 29C256.709 29 255.218 28.7283 253.901 28.2134C252.583 27.6965 251.449 26.9434 250.535 25.9824C249.621 25.022 248.901 23.8316 248.408 22.4523C247.915 21.073 247.656 19.5136 247.656 17.7849V0.578129H249.29V17.8247C249.29 19.3064 249.505 20.6655 249.912 21.852C250.321 23.0374 250.924 24.0553 251.702 24.8861C252.48 25.7182 253.44 26.3627 254.556 26.7949C255.671 27.2271 256.942 27.452 258.358 27.452C259.77 27.452 261.048 27.2271 262.163 26.7949C263.279 26.3627 264.238 25.7132 265.011 24.8861C265.782 24.0622 266.391 23.0374 266.8 21.852C267.208 20.6655 267.422 19.3196 267.422 17.8247V0.578129H269.057V17.7849C269.057 19.5003 268.804 21.073 268.311 22.4523C267.818 23.8303 267.092 25.022 266.178 25.9824C265.263 26.9434 264.134 27.6902 262.811 28.2134C261.488 28.7346 260.002 29 258.358 29ZM221.418 27.373C223.221 27.373 224.797 27.059 226.145 26.4284C227.495 25.796 228.627 24.9019 229.524 23.7659C230.42 22.6292 231.105 21.2606 231.555 19.6867C232.005 18.1135 232.236 16.381 232.236 14.4994C232.236 12.6165 232.009 10.884 231.555 9.30505C231.1 7.72672 230.422 6.36259 229.524 5.22528C228.628 4.0905 227.49 3.19898 226.145 2.57094C224.801 1.94353 223.221 1.62382 221.418 1.62382C219.614 1.62382 218.045 1.93974 216.704 2.57094C215.361 3.20277 214.239 4.08671 213.343 5.22528C212.448 6.36638 211.771 7.73177 211.322 9.30505C210.871 10.8802 210.625 12.6165 210.6 14.4994C210.587 16.381 210.812 18.1135 211.255 19.6867C211.698 21.2606 212.382 22.6305 213.284 23.7659C214.188 24.9032 215.327 25.796 216.684 26.4284C218.039 27.059 219.614 27.373 221.418 27.373ZM221.418 29C219.329 29 217.495 28.6323 215.932 27.9234C214.365 27.2113 213.048 26.2111 212.001 24.9379C210.956 23.6673 210.162 22.1313 209.64 20.3571C209.121 18.5829 208.85 16.6255 208.85 14.4994C208.85 12.372 209.119 10.4152 209.64 8.64162C210.161 6.86742 210.95 5.33648 212.001 4.06081C213.052 2.78324 214.366 1.78178 215.932 1.07033C217.497 0.35825 219.329 -1.90735e-06 221.418 -1.90735e-06C223.505 -1.90735e-06 225.339 0.35825 226.906 1.07033C228.47 1.78178 229.789 2.78829 230.834 4.06081C231.881 5.33143 232.681 6.86869 233.201 8.64162C233.722 10.4152 233.987 12.372 233.987 14.4994C233.987 16.6255 233.727 18.5791 233.201 20.3571C232.677 22.1351 231.885 23.6635 230.834 24.9379C229.784 26.2149 228.473 27.2075 226.906 27.9234C225.335 28.6373 223.505 29 221.418 29ZM177.462 15.6588H185.749C186.839 15.6588 187.818 15.5046 188.687 15.1957C189.556 14.8848 190.298 14.4387 190.905 13.86C191.51 13.2843 191.984 12.5697 192.306 11.742C192.626 10.9124 192.792 9.97542 192.792 8.92974C192.792 7.88847 192.626 6.94514 192.306 6.1168C191.984 5.2872 191.512 4.57954 190.905 4.00078C190.299 3.42392 189.553 2.97215 188.687 2.66698C187.821 2.36054 186.834 2.20384 185.749 2.20384H177.462V15.6588ZM185.866 17.2813H185.749H177.462V28.4187H175.826V0.578129H185.749C187.085 0.578129 188.298 0.772734 189.381 1.167C190.463 1.55811 191.388 2.1236 192.15 2.84831C192.912 3.5743 193.505 4.45255 193.921 5.4837C194.336 6.51549 194.543 7.66164 194.543 8.91836C194.543 10.014 194.388 11.0262 194.071 11.9411C193.753 12.8623 193.297 13.6736 192.708 14.3762C192.119 15.0788 191.401 15.6613 190.568 16.1219C189.733 16.5838 188.785 16.9086 187.734 17.0899L195.321 28.4187H193.357L185.866 17.2813ZM161.16 23.0626C160.772 24.0034 160.258 24.8438 159.616 25.5773C158.976 26.3096 158.221 26.932 157.367 27.4394C156.512 27.9467 155.557 28.3347 154.499 28.6C153.442 28.8629 152.294 29 151.061 29C149.105 29 147.352 28.662 145.809 27.9998C144.267 27.3357 142.962 26.3823 141.892 25.1382C140.823 23.8948 140.004 22.3733 139.441 20.5757C138.879 18.7801 138.591 16.7544 138.591 14.4994C138.591 12.2437 138.877 10.2199 139.448 8.42806C140.019 6.6368 140.85 5.11661 141.931 3.87315C143.013 2.63096 144.332 1.68068 145.887 1.02484C147.443 0.368992 149.202 0.0385399 151.16 0.0385399C152.353 0.0385399 153.49 0.174385 154.558 0.451761C155.627 0.727242 156.615 1.14804 157.515 1.70153C158.416 2.25565 159.216 2.9532 159.915 3.79038C160.614 4.62504 161.186 5.60691 161.628 6.72779L160.031 7.3849C159.656 6.43146 159.174 5.59238 158.586 4.87967C157.997 4.1638 157.313 3.56861 156.549 3.09283C155.784 2.61769 154.946 2.25439 154.038 2.01619C153.133 1.77925 152.171 1.66299 151.16 1.66299C149.42 1.66299 147.884 1.94732 146.542 2.52039C145.201 3.09283 144.064 3.93886 143.143 5.04521C142.224 6.15282 141.527 7.52074 141.056 9.1433C140.583 10.7659 140.342 12.6291 140.342 14.7306C140.342 16.7032 140.582 18.4679 141.062 20.0336C141.542 21.6006 142.244 22.9287 143.164 24.018C144.084 25.1047 145.214 25.9381 146.542 26.5112C147.871 27.0836 149.376 27.373 151.061 27.373C152.853 27.373 154.383 27.0963 155.648 26.5504C156.912 26.0032 157.945 25.233 158.742 24.2499C159.537 23.2648 160.124 22.0833 160.492 20.704C160.862 19.326 161.044 17.7988 161.044 16.1219H149.681V14.4994H162.794V28.4187H161.16V23.0626ZM105.008 28.4187H123.477V26.7481H105.008V28.4187ZM105.008 2.22722H123.477V0.578129H105.008V2.22722ZM78.5882 28.4187L68.3942 0.578129H70.1445L79.4451 26.079L88.7836 0.578129H90.5351L80.3398 28.4187H78.5882ZM44.8365 27.373C46.6388 27.373 48.2146 27.059 49.5637 26.4284C50.9141 25.796 52.0432 24.907 52.943 23.7659C53.8442 22.6254 54.52 21.2644 54.9732 19.6867C55.4277 18.1084 55.6543 16.381 55.6543 14.4994C55.6543 12.6165 55.4277 10.884 54.9732 9.30505C54.52 7.72672 53.8442 6.36638 52.943 5.22528C52.0432 4.08671 50.9141 3.20277 49.5637 2.57094C48.2146 1.93974 46.6388 1.62382 44.8365 1.62382C43.0329 1.62382 41.465 1.93974 40.1224 2.57094C38.7797 3.20277 37.6572 4.08671 36.7625 5.22528C35.8666 6.36638 35.1933 7.72672 34.7388 9.30505C34.2857 10.884 34.0447 12.6165 34.0187 14.4994C34.0057 16.381 34.2258 18.1084 34.6737 19.6867C35.1217 21.2644 35.7963 22.6254 36.7026 23.7659C37.6116 24.907 38.7459 25.796 40.1028 26.4284C41.4572 27.059 43.0329 27.373 44.8365 27.373ZM44.8365 29C42.7477 29 40.9193 28.6373 39.3501 27.9234C37.7809 27.2075 36.4708 26.2149 35.4199 24.9379C34.3703 23.6635 33.5838 22.1351 33.059 20.3571C32.5341 18.5791 32.2685 16.6255 32.2685 14.4994C32.2685 12.372 32.5341 10.419 33.059 8.64162C33.5838 6.86363 34.3703 5.33648 35.4199 4.06081C36.4708 2.78324 37.7809 1.78557 39.3501 1.07033C40.9193 0.353195 42.7477 -1.90735e-06 44.8365 -1.90735e-06C46.924 -1.90735e-06 48.7537 0.353195 50.3229 1.07033C51.8921 1.78557 53.2022 2.78324 54.2531 4.06081C55.304 5.33648 56.0958 6.86363 56.6206 8.64162C57.1454 10.419 57.4058 12.372 57.4058 14.4994C57.4058 16.6255 57.1454 18.5791 56.6206 20.3571C56.0958 22.1351 55.304 23.6635 54.2531 24.9379C53.2022 26.2149 51.8921 27.2075 50.3229 27.9234C48.7537 28.6373 46.924 29 44.8365 29ZM10.8569 29C9.44262 29 8.13255 28.825 6.91886 28.4768C5.70776 28.1287 4.63081 27.627 3.69058 26.975C2.74905 26.3235 1.96509 25.5369 1.3361 24.6157C0.707121 23.6945 0.259145 22.6576 0 21.4969L1.63432 21.188C1.89347 22.1427 2.29587 22.9982 2.84021 23.7659C3.38455 24.5329 4.06041 25.1837 4.85739 25.7182C5.65567 26.2528 6.55683 26.6654 7.56738 26.9503C8.58053 27.2321 9.67573 27.373 10.8569 27.373C12.0888 27.373 13.2035 27.2271 14.2023 26.9307C15.2025 26.6344 16.0581 26.2149 16.7652 25.6728C17.471 25.1306 18.0166 24.4748 18.406 23.7071C18.7941 22.9413 18.9881 22.0909 18.9881 21.1494C18.9881 18.5728 17.29 16.779 13.8911 15.775L6.8876 13.6868C3.02122 12.54 1.08998 10.4139 1.08998 7.30718C1.08998 6.23811 1.31657 5.25877 1.76324 4.36851C2.21252 3.47825 2.83369 2.70678 3.63849 2.05473C4.44197 1.40394 5.40955 0.901628 6.52949 0.54085C7.65203 0.180073 8.88526 -1.90735e-06 10.2331 -1.90735e-06C11.6083 -1.90735e-06 12.8806 0.192709 14.0474 0.578129C15.2142 0.966707 16.2456 1.51388 17.1402 2.2228C18.0362 2.93235 18.7759 3.78217 19.3527 4.7811C19.9297 5.78003 20.2982 6.89585 20.4675 8.11846L18.8331 8.42806C18.7042 7.4108 18.3982 6.48137 17.9125 5.65114C17.4254 4.82027 16.8029 4.10314 16.0516 3.50542C15.2988 2.90644 14.4289 2.44205 13.4431 2.11286C12.4573 1.78557 11.3882 1.62382 10.2331 1.62382C9.13138 1.62382 8.12605 1.76472 7.21838 2.05473C6.3094 2.346 5.53195 2.74596 4.88344 3.25459C4.23492 3.76321 3.73615 4.36346 3.37933 5.04521C3.02122 5.72822 2.84021 6.47 2.84021 7.26864C2.84021 7.89984 2.93787 8.46154 3.13321 8.9569C3.32725 9.45289 3.6515 9.90403 4.09948 10.3103C4.54616 10.7172 5.12305 11.083 5.83668 11.4128C6.55032 11.742 7.41892 12.0636 8.44379 12.372L14.2427 14.1121C16.3042 14.7306 17.8799 15.6329 18.9634 16.8245C20.0469 18.0174 20.5834 19.4618 20.5834 21.1494C20.5834 22.3487 20.3568 23.4304 19.8958 24.3983C19.4361 25.365 18.7811 26.1877 17.9385 26.8726C17.0959 27.5556 16.0763 28.0769 14.8782 28.4434C13.6775 28.8123 12.3349 29 10.8569 29Z" fill="white"/>
</svg>
