<svg width="17" height="17" viewBox="0 0 17 17" fill="none" xmlns="http://www.w3.org/2000/svg">
<path d="M2.24118 16.2411L14.0012 4.48438L14.0012 12.6875C14.0012 13.0356 14.1395 13.3694 14.3856 13.6156C14.6318 13.8617 14.9656 14 15.3137 14C15.6618 14 15.9956 13.8617 16.2418 13.6156C16.4879 13.3694 16.6262 13.0356 16.6262 12.6875L16.6262 1.3125C16.6262 0.964404 16.4879 0.630564 16.2418 0.384423C15.9956 0.138281 15.6618 6.71921e-07 15.3137 6.56987e-07L3.93868 1.68977e-07C3.59059 1.54043e-07 3.25675 0.138281 3.01061 0.384422C2.76446 0.630564 2.62618 0.964404 2.62618 1.3125C2.62618 1.6606 2.76446 1.99444 3.01061 2.24058C3.25675 2.48672 3.59059 2.625 3.93868 2.625L12.1418 2.625L0.385088 14.3839C0.263 14.506 0.166154 14.6509 0.100081 14.8105C0.0340068 14.97 -6.74319e-07 15.1409 -6.82008e-07 15.3136C-6.89698e-07 15.4863 0.0340067 15.6572 0.10008 15.8167C0.166154 15.9763 0.263 16.1212 0.385088 16.2433C0.507177 16.3654 0.652117 16.4622 0.811633 16.5283C0.971149 16.5944 1.14212 16.6284 1.31478 16.6284C1.48744 16.6284 1.6584 16.5944 1.81792 16.5283C1.97744 16.4622 2.12238 16.3654 2.24446 16.2433L2.24118 16.2411Z" fill="#A05035"/>
</svg>
